<svg width="67" height="64" viewBox="0 0 67 64" fill="none" xmlns="http://www.w3.org/2000/svg">
<path d="M1.15039 20.4951C3.62146 12.0227 9.92307 5.18209 18.0531 1.97794C18.1099 1.95374 18.1675 1.93287 18.2284 1.91284" fill="white"/>
<path d="M18.0531 1.97803C9.92307 5.18218 3.62146 12.022 1.15039 20.4952Z" fill="white"/>
<path d="M31.4419 0.150198C31.6439 0.169395 31.8375 0.198606 32.0361 0.221975C31.8033 0.193598 31.5704 0.165221 31.3359 0.142686C31.3727 0.141851 31.4052 0.146025 31.4419 0.150198Z" fill="white"/>
<path d="M32.0361 0.221924C32.0954 0.229436 32.1555 0.235279 32.2147 0.243625C32.1555 0.236113 32.0962 0.228601 32.0361 0.221924Z" fill="white"/>
<path d="M52.6729 13.3949H52.6687C48.254 6.34564 40.8425 1.3654 32.2158 0.243652" fill="white"/>
<path d="M52.6691 13.395L51.3013 14.2497L29.3011 27.9051C28.2997 28.5277 27.6888 29.6236 27.6888 30.8037V54.0925C27.6888 54.0925 27.6888 54.125 27.6888 54.1818V56.987H27.6846L27.2407 54.463L26.235 48.7834L22.14 25.6783C22.1316 25.6257 22.1233 25.5806 22.1233 25.5314L22.1191 25.503C22.1024 25.0548 22.3227 24.6233 22.7133 24.3796L37.9478 14.8114C38.648 14.3715 38.6279 13.3458 37.9111 12.9385L37.7684 12.8567C37.0765 12.4577 36.2211 12.4736 35.5418 12.8892L19.759 22.5759C19.1239 22.9666 18.7334 23.6626 18.7334 24.4121V50.4852L18.725 55.2776L18.5423 55.2084C18.2126 55.0865 17.8871 54.9597 17.565 54.8253C17.5041 54.8011 17.439 54.7727 17.3781 54.7435C16.5152 54.3854 15.7541 54.019 15.1632 53.7135C15.053 53.6568 14.9471 53.5917 14.8494 53.5224C14.2227 53.0709 13.848 52.3414 13.848 51.556V21.6353C13.848 20.8416 14.2669 20.1088 14.9471 19.7098L30.4495 10.5447C31.0562 10.1867 31.0804 9.31949 30.4945 8.92805L30.2016 8.72858C29.66 8.37052 28.964 8.34965 28.4065 8.67933L12.496 18.0806C11.82 18.4837 11.4053 19.2124 11.4053 19.9986V51.2998C9.06439 49.5412 7.00058 47.4321 5.29895 45.0459C5.28643 45.0259 5.27475 45.0092 5.26223 44.9891C1.78137 39.8996 0.592985 34.8308 0.194075 31.6834C0.181557 31.5816 0.169873 31.484 0.157355 31.3863C0.144837 31.2887 0.133155 31.191 0.124809 31.0934C0.112291 30.9548 0.100607 30.8204 0.0880892 30.6944C-0.0337535 29.3181 0.00630344 28.5002 0.00630344 28.5002C0.132319 25.5322 0.531228 22.8773 1.15046 20.496C3.62153 12.0237 9.92313 5.18306 18.0532 1.97891C18.11 1.95471 18.1675 1.93384 18.2285 1.91381C22.4621 0.411473 26.1833 0.0859668 27.7339 0.0166924C27.9091 0.0125192 28.0518 0.00834657 28.1695 0.00417341C28.3856 2.54647e-07 28.5033 0 28.5033 0C28.7679 0 29.0282 0.00417239 29.2886 0.00834555C29.5048 0.0166919 29.7201 0.0250392 29.9404 0.036724C30.0906 0.0450703 30.2417 0.0534161 30.3961 0.0609277C30.4086 0.0651009 30.4203 0.0651012 30.4328 0.0651012C30.734 0.0851323 31.0395 0.114344 31.3366 0.142721C31.4259 0.151068 31.516 0.159415 31.6011 0.1711C31.6504 0.175273 31.6946 0.179446 31.7397 0.187792C31.7722 0.187792 31.8048 0.191965 31.8373 0.200311H31.8498C31.8824 0.204484 31.9191 0.208658 31.9516 0.212831C32.0409 0.221178 32.1311 0.232862 32.2162 0.245382C32.3222 0.257901 32.424 0.273759 32.53 0.290451C32.55 0.290451 32.5709 0.290452 32.5867 0.298798H32.5909C32.5951 0.298798 32.5951 0.298798 32.5951 0.298798H32.6076C32.6443 0.302971 32.681 0.307144 32.7177 0.315491H32.7219C32.7503 0.319664 32.7787 0.323836 32.8037 0.32801C32.8287 0.332183 32.8529 0.336357 32.8813 0.34053C32.9264 0.344703 32.9664 0.353048 33.0115 0.36056C33.0157 0.36056 33.0198 0.36056 33.024 0.364734C33.1175 0.377253 33.2151 0.393111 33.3086 0.413977C33.3411 0.41815 33.3779 0.422323 33.4104 0.430669C33.5406 0.4507 33.6666 0.471567 33.7968 0.495771C33.801 0.495771 33.8051 0.499943 33.8093 0.499943C33.8135 0.499943 33.8218 0.499944 33.8293 0.504117C34.033 0.545014 34.2366 0.585911 34.4402 0.625974C34.5871 0.654351 34.7332 0.686902 34.88 0.723625C35.0511 0.760349 35.2222 0.801245 35.3933 0.845481C35.4458 0.858 35.4993 0.869686 35.556 0.886378C35.7062 0.923102 35.8531 0.963999 36 1.00406C36.0526 1.01658 36.1101 1.03244 36.1669 1.04913C36.338 1.09837 36.5049 1.14678 36.676 1.19937C36.6801 1.19519 36.6843 1.19937 36.6885 1.19937C36.7168 1.20771 36.7452 1.21606 36.7736 1.22774C36.9363 1.27281 37.0949 1.32122 37.2543 1.37798C37.2668 1.38215 37.2827 1.38632 37.2952 1.3905C37.377 1.4147 37.4579 1.43974 37.5355 1.46812C37.7634 1.54156 37.987 1.62252 38.2115 1.70432C38.2966 1.73269 38.3826 1.76525 38.4677 1.7978C38.6146 1.85038 38.7648 1.90797 38.9117 1.9689C39.046 2.01814 39.1762 2.07072 39.3023 2.1233C39.4525 2.18423 39.5993 2.24516 39.7462 2.31026C39.8197 2.33864 39.8931 2.37119 39.9657 2.40374C40.1126 2.46884 40.2545 2.52977 40.3972 2.59904C40.4906 2.63994 40.5841 2.68417 40.6784 2.72924C40.8862 2.8269 41.094 2.92872 41.2968 3.03055C41.3168 3.03889 41.3335 3.04724 41.3536 3.05892C41.4145 3.09147 41.4754 3.11985 41.5372 3.1524C41.6022 3.18495 41.6673 3.22168 41.7324 3.25423C41.7691 3.27092 41.8017 3.29095 41.8342 3.31098C41.8952 3.33936 41.9519 3.37191 42.0095 3.40029C42.022 3.40446 42.0295 3.41281 42.042 3.42032C42.2048 3.50545 42.3633 3.59559 42.5186 3.6849C42.6362 3.75 42.7589 3.81927 42.8766 3.88855C42.9217 3.91275 42.9659 3.94113 43.0068 3.96617C43.0268 3.97869 43.0518 3.99037 43.0719 4.00707C43.1086 4.0271 43.1453 4.04796 43.1779 4.06799C43.2596 4.11724 43.3406 4.16565 43.4224 4.21823C43.5851 4.31588 43.7478 4.4177 43.9064 4.5237C44.0166 4.5888 44.1226 4.66225 44.2319 4.7357C44.3095 4.78494 44.3821 4.83335 44.4555 4.88593C44.549 4.94686 44.6391 5.00779 44.7326 5.07289C44.8219 5.13382 44.9162 5.19892 45.0055 5.26402C45.0506 5.2924 45.0906 5.32495 45.1315 5.3575C45.2375 5.43095 45.3435 5.50857 45.4486 5.58953C45.4979 5.62208 45.5505 5.6588 45.5989 5.6997C45.6397 5.72808 45.6806 5.76063 45.7207 5.79318C45.7407 5.8057 45.7574 5.82156 45.7774 5.83408C45.7975 5.85077 45.8142 5.86245 45.8342 5.88332C45.8993 5.93256 45.9686 5.98514 46.0337 6.03355C46.0462 6.0419 46.0537 6.05358 46.0662 6.06193C46.3065 6.24555 46.5427 6.43668 46.7747 6.63198C46.8114 6.66036 46.844 6.68874 46.8765 6.71711C46.9258 6.75801 46.9742 6.79891 47.0234 6.84314C47.1252 6.92828 47.2229 7.01424 47.3247 7.10355C47.3614 7.1361 47.4023 7.16865 47.439 7.20537C47.5241 7.27882 47.6059 7.35227 47.6877 7.42905C47.696 7.4374 47.7077 7.44575 47.7161 7.45326L47.8746 7.60015C47.9481 7.66525 48.0215 7.73453 48.0941 7.80798C48.1108 7.8205 48.1308 7.83636 48.1467 7.85722C48.2118 7.91815 48.2727 7.97908 48.3378 8.04418C48.4521 8.15018 48.5656 8.26035 48.6758 8.37386C48.725 8.4231 48.7776 8.47151 48.826 8.52409C48.8627 8.56081 48.8995 8.59754 48.9362 8.63844C48.9445 8.64678 48.9529 8.65847 48.9604 8.66681C48.9771 8.68351 48.9929 8.69519 49.0054 8.71188C49.0422 8.74861 49.0789 8.78533 49.1114 8.81788C49.1281 8.83791 49.1481 8.85461 49.164 8.87464C49.2291 8.94391 49.2942 9.01319 49.3593 9.08246C49.4978 9.22935 49.6322 9.37959 49.7665 9.53066C49.8074 9.57155 49.8442 9.61579 49.8809 9.66086C50.0236 9.81944 50.1655 9.98219 50.304 10.1491C50.3566 10.21 50.41 10.2751 50.4625 10.3403C50.5518 10.4462 50.6378 10.5522 50.7229 10.6574C50.8122 10.7718 50.9065 10.8894 51 11.008C51.0167 11.028 51.0325 11.0489 51.0492 11.0731C51.151 11.2033 51.2529 11.3335 51.3505 11.4678C51.4682 11.6222 51.5825 11.7817 51.6927 11.9402C51.7536 12.0179 51.8103 12.0988 51.8637 12.1806C52.1433 12.5762 52.412 12.9835 52.6691 13.395Z" fill="white"/>
<path d="M56.9957 28.8338V28.7813C56.9464 25.3493 56.4173 22.5232 55.8231 20.3941C55.7864 20.2638 55.7497 20.142 55.7171 20.0235C55.3958 18.9284 55.0579 18.0329 54.7724 17.3527C54.7274 17.2508 54.679 17.1615 54.6139 17.0756C54.6181 17.0714 54.6181 17.0714 54.6139 17.0714C54.1699 16.4362 53.2945 16.2326 52.5985 16.6441L52.5209 16.6933L32.5946 28.6502C31.0682 29.5666 30.1318 31.2192 30.1318 33.0028V55.4035C30.1318 56.1121 30.6159 56.7022 31.2635 56.8649H31.2676C33.4742 56.6529 35.6114 56.1889 37.6427 55.5012C37.6919 55.4845 37.7403 55.4644 37.7929 55.4486C39.5354 54.8009 41.5341 53.8853 43.7407 52.5866C43.7607 52.5741 43.7816 52.5624 43.8016 52.5499C43.8016 52.5499 43.9768 52.4439 44.2781 52.2444C44.339 52.2035 44.3958 52.1626 44.4534 52.1267C44.5185 52.0858 44.5836 52.0416 44.6528 51.9924C44.7263 51.9398 44.803 51.8864 44.8765 51.838C44.9174 51.8096 44.9541 51.7812 44.9941 51.7528C45.1652 51.6351 45.3522 51.5008 45.5474 51.3497C48.2914 49.2898 50.6523 46.7609 52.5092 43.8622C52.5175 43.858 52.5175 43.8497 52.5217 43.8455C53.8528 41.7573 54.9277 39.4854 55.6846 37.075C55.7088 37.0099 55.7297 36.9448 55.7455 36.8797C55.8023 36.6927 55.8557 36.5091 55.9041 36.3263C55.9325 36.2287 55.9567 36.131 55.9859 36.0334C56.0101 35.9357 56.0351 35.8381 56.0593 35.7446C56.2346 35.0727 56.3764 34.4292 56.4908 33.8266C56.5233 33.6555 56.5517 33.4886 56.5801 33.3217C56.5842 33.305 56.5884 33.2849 56.5884 33.2691C56.6168 33.1264 56.641 32.9845 56.6618 32.8417C56.7511 32.2917 56.8162 31.7909 56.8613 31.3478C56.9998 30.0858 56.9998 29.3163 56.9998 29.3163C56.9998 29.151 56.9998 28.9924 56.9957 28.8338ZM36.1522 35.6161C36.1522 34.8707 36.5511 34.183 37.2029 33.8124L48.1312 27.5719C48.1487 27.5619 48.1654 27.5527 48.1838 27.5443C48.4149 27.4383 49.9346 26.799 50.7224 27.9859C50.7224 27.9859 51.5812 29.2729 49.4397 30.5549L36.1522 38.2702V35.6161V35.6161ZM49.9496 39.7901L38.8136 46.5088C37.7937 47.0597 36.7681 47.7775 36.7948 46.2568L36.9025 43.6903C36.9826 42.3657 36.0262 44.2111 36.9025 43.6903L48.7771 36.4816C48.7988 36.4682 48.8213 36.4565 48.8447 36.4457C49.1059 36.3238 50.5747 35.7145 51.2916 37.0157C51.2907 37.0149 52.0827 38.4505 49.9496 39.7901Z" fill="white"/>
<path d="M22.1208 25.5032L22.0732 54.6109C22.0716 55.6025 22.7893 56.448 23.769 56.5999C24.7271 56.7484 26.0598 56.912 27.6897 56.9997L22.1208 25.5032Z" fill="white"/>
<path d="M27.6891 54.0916C27.6891 54.0916 27.1951 56.7741 28.6054 56.9969L27.6891 57.0002L26.7002 54.9062L27.6891 54.0916Z" fill="white"/>
<path d="M52.6684 13.3949L53.0523 14.0826C53.0523 14.0826 52.1702 13.7104 50.587 14.6927C49.0039 15.6751 46.0947 9.54639 46.0947 9.54639" fill="white"/>
<path d="M55.895 59.09C54.865 59.09 53.955 58.86 53.165 58.4C52.385 57.94 51.77 57.31 51.32 56.51C50.88 55.7 50.66 54.77 50.66 53.72C50.66 52.68 50.88 51.76 51.32 50.96C51.77 50.15 52.385 49.52 53.165 49.07C53.955 48.61 54.865 48.38 55.895 48.38C56.935 48.38 57.845 48.61 58.625 49.07C59.415 49.52 60.03 50.15 60.47 50.96C60.91 51.76 61.13 52.68 61.13 53.72C61.13 54.77 60.91 55.7 60.47 56.51C60.03 57.31 59.415 57.94 58.625 58.4C57.845 58.86 56.935 59.09 55.895 59.09ZM55.895 58.385C56.825 58.385 57.625 58.19 58.295 57.8C58.965 57.41 59.48 56.865 59.84 56.165C60.21 55.465 60.395 54.65 60.395 53.72C60.395 52.79 60.21 51.975 59.84 51.275C59.48 50.575 58.965 50.035 58.295 49.655C57.625 49.265 56.825 49.07 55.895 49.07C54.975 49.07 54.18 49.265 53.51 49.655C52.84 50.035 52.32 50.575 51.95 51.275C51.59 51.975 51.41 52.79 51.41 53.72C51.41 54.65 51.59 55.465 51.95 56.165C52.32 56.865 52.84 57.41 53.51 57.8C54.18 58.19 54.975 58.385 55.895 58.385ZM55.91 57.155C55.29 57.155 54.73 57.02 54.23 56.75C53.73 56.47 53.335 56.075 53.045 55.565C52.765 55.045 52.625 54.43 52.625 53.72C52.625 53.01 52.765 52.4 53.045 51.89C53.335 51.38 53.73 50.985 54.23 50.705C54.73 50.425 55.29 50.285 55.91 50.285C56.68 50.285 57.345 50.495 57.905 50.915C58.475 51.335 58.845 51.92 59.015 52.67H57.335C57.225 52.34 57.04 52.085 56.78 51.905C56.53 51.715 56.225 51.62 55.865 51.62C55.395 51.62 55 51.795 54.68 52.145C54.37 52.495 54.215 53.02 54.215 53.72C54.215 54.42 54.37 54.95 54.68 55.31C55 55.66 55.395 55.835 55.865 55.835C56.245 55.835 56.555 55.74 56.795 55.55C57.035 55.36 57.215 55.105 57.335 54.785H59.015C58.845 55.505 58.475 56.08 57.905 56.51C57.345 56.94 56.68 57.155 55.91 57.155Z" fill="white"/>
</svg>
