<svg width="57" height="57" viewBox="0 0 57 57" fill="none" xmlns="http://www.w3.org/2000/svg">
<path d="M1.15039 20.495C3.62145 12.0227 9.92302 5.18207 18.0531 1.97794C18.1098 1.95374 18.1674 1.93287 18.2283 1.91284" fill="#231F20"/>
<path d="M18.0531 1.97803C9.92302 5.18216 3.62145 12.0219 1.15039 20.4951Z" fill="#231F20"/>
<path d="M31.4424 0.150198C31.6444 0.169395 31.838 0.198605 32.0366 0.221975C31.8038 0.193598 31.5709 0.16522 31.3364 0.142686C31.3731 0.141851 31.4057 0.146025 31.4424 0.150198Z" fill="#231F20"/>
<path d="M32.0366 0.221924C32.0959 0.229435 32.156 0.235279 32.2152 0.243625C32.156 0.236113 32.0967 0.228601 32.0366 0.221924Z" fill="#231F20"/>
<path d="M52.6728 13.3949H52.6686C48.2539 6.34561 40.8424 1.36539 32.2158 0.243652" fill="#231F20"/>
<path d="M52.6688 13.3949L51.301 14.2496L29.301 27.9049C28.2995 28.5275 27.6887 29.6234 27.6887 30.8036V54.0922C27.6887 54.0922 27.6887 54.1247 27.6887 54.1815V56.9866H27.6845L27.2405 54.4627L26.2349 48.7831L22.1398 25.6781C22.1315 25.6255 22.1231 25.5805 22.1231 25.5312L22.119 25.5029C22.1023 25.0547 22.3226 24.6232 22.7132 24.3794L37.9476 14.8113C38.6478 14.3714 38.6277 13.3457 37.9109 12.9384L37.7682 12.8566C37.0763 12.4576 36.2209 12.4735 35.5416 12.8891L19.7589 22.5758C19.1238 22.9664 18.7333 23.6625 18.7333 24.412V50.4849L18.7249 55.2773L18.5422 55.2081C18.2125 55.0862 17.887 54.9593 17.5649 54.825C17.504 54.8008 17.4389 54.7724 17.378 54.7432C16.5151 54.3851 15.754 54.0187 15.1631 53.7132C15.053 53.6565 14.947 53.5914 14.8493 53.5221C14.2226 53.0706 13.8479 52.3411 13.8479 51.5557V21.6352C13.8479 20.8415 14.2668 20.1087 14.947 19.7097L30.4493 10.5447C31.056 10.1866 31.0802 9.31944 30.4944 8.928L30.2014 8.72853C29.6598 8.37047 28.9638 8.34961 28.4063 8.67928L12.4959 18.0805C11.82 18.4836 11.4052 19.2123 11.4052 19.9985V51.2995C9.06434 49.5409 7.00054 47.4318 5.29892 45.0456C5.2864 45.0256 5.27472 45.0089 5.2622 44.9889C1.78136 39.8993 0.592981 34.8306 0.194074 31.6833C0.181556 31.5814 0.169872 31.4838 0.157354 31.3861C0.144836 31.2885 0.133154 31.1908 0.124808 31.0932C0.11229 30.9546 0.100607 30.8203 0.0880887 30.6942C-0.0337533 29.3179 0.00630341 28.5 0.00630341 28.5C0.132318 25.5321 0.531225 22.8771 1.15045 20.4959C3.62151 12.0236 9.92308 5.18303 18.0531 1.9789C18.1099 1.9547 18.1674 1.93383 18.2284 1.9138C22.462 0.41147 26.1831 0.0859663 27.7337 0.0166923C27.909 0.0125191 28.0517 0.00834652 28.1693 0.00417339C28.3855 2.54646e-07 28.5032 0 28.5032 0C28.7677 0 29.0281 0.00417237 29.2885 0.0083455C29.5046 0.0166918 29.7199 0.025039 29.9402 0.0367238C30.0904 0.04507 30.2415 0.0534158 30.3959 0.0609274C30.4084 0.0651005 30.4201 0.0651008 30.4326 0.0651008C30.7339 0.0851318 31.0393 0.114343 31.3364 0.14272C31.4257 0.151067 31.5158 0.159414 31.6009 0.171099C31.6502 0.175272 31.6944 0.179445 31.7395 0.187791C31.772 0.187791 31.8046 0.191964 31.8371 0.20031H31.8496C31.8822 0.204483 31.9189 0.208657 31.9514 0.21283C32.0407 0.221176 32.1309 0.232861 32.216 0.24538C32.322 0.2579 32.4238 0.273757 32.5298 0.29045C32.5498 0.29045 32.5707 0.29045 32.5865 0.298797H32.5907C32.5949 0.298797 32.5949 0.298797 32.5949 0.298797H32.6074C32.6441 0.30297 32.6808 0.307143 32.7176 0.315489H32.7217C32.7501 0.319662 32.7785 0.323835 32.8035 0.328008C32.8285 0.332181 32.8527 0.336355 32.8811 0.340528C32.9262 0.344701 32.9662 0.353046 33.0113 0.360558C33.0155 0.360558 33.0197 0.360558 33.0238 0.364731C33.1173 0.377251 33.2149 0.393108 33.3084 0.413974C33.341 0.418147 33.3777 0.42232 33.4102 0.430666C33.5404 0.450697 33.6664 0.471564 33.7966 0.495769C33.8008 0.495769 33.805 0.499941 33.8091 0.499941C33.8133 0.499941 33.8216 0.499941 33.8292 0.504114C34.0328 0.545011 34.2364 0.585908 34.44 0.62597C34.5869 0.654347 34.733 0.686898 34.8798 0.723621C35.0509 0.760345 35.222 0.801241 35.3931 0.845476C35.4456 0.857995 35.4991 0.869681 35.5558 0.886373C35.706 0.923097 35.8529 0.963994 35.9998 1.00406C36.0524 1.01658 36.1099 1.03243 36.1667 1.04913C36.3378 1.09837 36.5047 1.14678 36.6758 1.19936C36.6799 1.19519 36.6841 1.19936 36.6883 1.19936C36.7166 1.2077 36.745 1.21605 36.7734 1.22774C36.9361 1.27281 37.0947 1.32121 37.2541 1.37797C37.2666 1.38214 37.2825 1.38631 37.295 1.39049C37.3768 1.41469 37.4577 1.43973 37.5353 1.46811C37.7632 1.54156 37.9868 1.62251 38.2113 1.70431C38.2964 1.73269 38.3824 1.76524 38.4675 1.79779C38.6144 1.85037 38.7646 1.90796 38.9115 1.96888C39.0458 2.01813 39.176 2.07071 39.302 2.12329C39.4522 2.18422 39.5991 2.24515 39.746 2.31025C39.8194 2.33862 39.8929 2.37117 39.9655 2.40373C40.1124 2.46883 40.2542 2.52975 40.3969 2.59903C40.4904 2.63992 40.5839 2.68416 40.6782 2.72923C40.886 2.82688 41.0938 2.92871 41.2966 3.03053C41.3166 3.03888 41.3333 3.04722 41.3533 3.05891C41.4142 3.09146 41.4752 3.11983 41.5369 3.15238C41.602 3.18493 41.6671 3.22166 41.7322 3.25421C41.7689 3.2709 41.8015 3.29093 41.834 3.31096C41.8949 3.33934 41.9517 3.37189 42.0093 3.40027C42.0218 3.40444 42.0293 3.41279 42.0418 3.4203C42.2045 3.50543 42.3631 3.59557 42.5183 3.68488C42.636 3.74998 42.7587 3.81925 42.8763 3.88853C42.9214 3.91273 42.9656 3.94111 43.0065 3.96615C43.0266 3.97866 43.0516 3.99035 43.0716 4.00704C43.1083 4.02707 43.1451 4.04794 43.1776 4.06797C43.2594 4.11721 43.3403 4.16562 43.4221 4.2182C43.5849 4.31585 43.7476 4.41768 43.9062 4.52368C44.0163 4.58878 44.1223 4.66223 44.2316 4.73567C44.3092 4.78492 44.3818 4.83332 44.4553 4.8859C44.5488 4.94683 44.6389 5.00776 44.7324 5.07286C44.8216 5.13379 44.9159 5.19889 45.0052 5.26399C45.0503 5.29237 45.0904 5.32492 45.1313 5.35747C45.2372 5.43092 45.3432 5.50854 45.4484 5.58949C45.4976 5.62204 45.5502 5.65877 45.5986 5.69967C45.6395 5.72804 45.6804 5.76059 45.7204 5.79314C45.7405 5.80566 45.7572 5.82152 45.7772 5.83404C45.7972 5.85073 45.8139 5.86242 45.8339 5.88328C45.899 5.93253 45.9683 5.98511 46.0334 6.03352C46.0459 6.04186 46.0534 6.05355 46.0659 6.06189C46.3063 6.24551 46.5425 6.43664 46.7745 6.63194C46.8112 6.66032 46.8437 6.6887 46.8763 6.71708C46.9255 6.75797 46.9739 6.79887 47.0231 6.84311C47.125 6.92824 47.2226 7.0142 47.3244 7.10351C47.3611 7.13606 47.402 7.16861 47.4387 7.20533C47.5239 7.27878 47.6057 7.35223 47.6874 7.42901C47.6958 7.43736 47.7075 7.44571 47.7158 7.45322L47.8744 7.60011C47.9478 7.66521 48.0213 7.73449 48.0939 7.80793C48.1105 7.82045 48.1306 7.83631 48.1464 7.85718C48.2115 7.9181 48.2724 7.97903 48.3375 8.04413C48.4519 8.15013 48.5654 8.2603 48.6755 8.37381C48.7248 8.42305 48.7773 8.47146 48.8257 8.52404C48.8625 8.56077 48.8992 8.59749 48.9359 8.63839C48.9442 8.64673 48.9526 8.65842 48.9601 8.66676C48.9768 8.68346 48.9927 8.69514 49.0052 8.71183C49.0419 8.74856 49.0786 8.78528 49.1112 8.81783C49.1278 8.83786 49.1479 8.85456 49.1637 8.87459C49.2288 8.94386 49.2939 9.01313 49.359 9.08241C49.4975 9.2293 49.6319 9.37953 49.7663 9.5306C49.8072 9.5715 49.8439 9.61573 49.8806 9.6608C50.0233 9.81938 50.1652 9.98214 50.3037 10.1491C50.3563 10.21 50.4097 10.2751 50.4623 10.3402C50.5516 10.4462 50.6375 10.5522 50.7226 10.6573C50.8119 10.7717 50.9062 10.8894 50.9997 11.0079C51.0164 11.0279 51.0323 11.0488 51.0489 11.073C51.1508 11.2032 51.2526 11.3334 51.3502 11.4678C51.4679 11.6222 51.5822 11.7816 51.6924 11.9402C51.7533 12.0178 51.81 12.0987 51.8634 12.1805C52.143 12.5762 52.4117 12.9835 52.6688 13.3949Z" fill="#231F20"/>
<path d="M56.996 28.8338V28.7812C56.9468 25.3492 56.4177 22.5232 55.8235 20.394C55.7868 20.2638 55.75 20.142 55.7175 20.0235C55.3962 18.9284 55.0582 18.0329 54.7728 17.3526C54.7277 17.2508 54.6793 17.1615 54.6142 17.0756C54.6184 17.0714 54.6184 17.0714 54.6142 17.0714C54.1703 16.4362 53.2948 16.2326 52.5988 16.6441L52.5212 16.6933L32.595 28.6502C31.0687 29.5666 30.1323 31.2191 30.1323 33.0027V55.4033C30.1323 56.1119 30.6164 56.702 31.264 56.8647H31.2681C33.4746 56.6527 35.6119 56.1887 37.6431 55.5009C37.6924 55.4842 37.7408 55.4642 37.7934 55.4484C39.5359 54.8007 41.5346 53.8851 43.7411 52.5864C43.7611 52.5739 43.782 52.5622 43.802 52.5497C43.802 52.5497 43.9773 52.4437 44.2785 52.2442C44.3394 52.2033 44.3962 52.1624 44.4538 52.1265C44.5189 52.0856 44.584 52.0414 44.6532 51.9922C44.7267 51.9396 44.8034 51.8862 44.8769 51.8378C44.9178 51.8094 44.9545 51.781 44.9946 51.7526C45.1656 51.6349 45.3526 51.5006 45.5478 51.3495C48.2918 49.2896 50.6527 46.7607 52.5095 43.8621C52.5179 43.8579 52.5179 43.8495 52.5221 43.8454C53.8531 41.7571 54.928 39.4853 55.6849 37.0749C55.7091 37.0098 55.73 36.9447 55.7459 36.8796C55.8026 36.6926 55.856 36.509 55.9044 36.3262C55.9328 36.2286 55.957 36.1309 55.9862 36.0333C56.0104 35.9356 56.0354 35.838 56.0596 35.7445C56.2349 35.0726 56.3768 34.4291 56.4911 33.8265C56.5236 33.6554 56.552 33.4885 56.5804 33.3216C56.5846 33.3049 56.5887 33.2848 56.5887 33.269C56.6171 33.1263 56.6413 32.9844 56.6622 32.8417C56.7515 32.2916 56.8166 31.7909 56.8616 31.3477C57.0002 30.0857 57.0002 29.3162 57.0002 29.3162C57.0002 29.1509 57.0002 28.9924 56.996 28.8338ZM36.1527 35.616C36.1527 34.8706 36.5516 34.1829 37.2033 33.8123L48.1316 27.5718C48.1491 27.5618 48.1658 27.5526 48.1841 27.5443C48.4153 27.4383 49.935 26.799 50.7228 27.9858C50.7228 27.9858 51.5815 29.2728 49.4401 30.5548L36.1527 38.2701V35.616V35.616ZM49.95 39.7899L38.814 46.5087C37.7942 47.0595 36.7685 47.7773 36.7953 46.2566L36.9029 43.6901C36.983 42.3656 36.0266 44.2109 36.9029 43.6901L48.7775 36.4815C48.7992 36.4681 48.8217 36.4564 48.8451 36.4456C49.1063 36.3237 50.5751 35.7144 51.2919 37.0156C51.2911 37.0148 52.0831 38.4503 49.95 39.7899Z" fill="#231F20"/>
<path d="M22.1208 25.5029L22.0732 54.6105C22.0716 55.6021 22.7893 56.4475 23.769 56.5995C24.7271 56.748 26.0598 56.9116 27.6897 56.9992L22.1208 25.5029Z" fill="#231F20"/>
<path d="M27.6896 54.0913C27.6896 54.0913 27.1956 56.7738 28.6059 56.9966L27.6896 57L26.7007 54.9059L27.6896 54.0913Z" fill="#231F20"/>
<path d="M52.6688 13.3949L53.0527 14.0826C53.0527 14.0826 52.1706 13.7103 50.5875 14.6927C49.0044 15.6751 46.0952 9.54639 46.0952 9.54639" fill="#231F20"/>
</svg>
