<svg width="50" height="51" viewBox="0 0 50 51" fill="none" xmlns="http://www.w3.org/2000/svg">
<path d="M8.88158 1.91226C4.93421 3.75436 3.15789 5.59647 1.38158 9.54384C0.197368 12.1754 0 13.8202 0 25.3333C0 37.4386 0.131579 38.3596 1.57895 41.4517C3.42105 45.3991 5.26316 47.1754 9.21053 48.9517C11.8421 50.1359 13.4868 50.3333 25 50.3333C36.5132 50.3333 38.1579 50.1359 40.7895 48.9517C44.7368 47.1754 46.5789 45.3991 48.4211 41.4517C49.8684 38.3596 50 37.4386 50 25.3333C50 13.228 49.8684 12.307 48.4211 9.21489C46.5789 5.26752 44.7368 3.49121 40.7895 1.71489C38.1579 0.53068 36.5132 0.333311 25 0.333311C12.8947 0.333311 11.9737 0.46489 8.88158 1.91226ZM40.1316 10.5307C41.8421 12.6359 39.2763 15.8596 37.0395 14.4123C34.7368 12.9649 35.5263 9.54384 38.1579 9.54384C38.8158 9.54384 39.6711 10.0044 40.1316 10.5307ZM32.2368 14.4123C36.1184 16.978 37.8289 20.2675 37.8289 25.3333C37.8289 30.4649 36.1184 33.6886 32.0395 36.3859C28.3553 38.8202 21.9737 38.9517 18.2237 36.5833C13.2237 33.4912 10.9211 27.3728 12.4342 21.5175C13.3553 18.1623 17.3684 13.8202 20.5263 12.8991C24.0132 11.8465 29.4079 12.5044 32.2368 14.4123Z" fill="#EB3540"/>
<path d="M20.5263 17.3727C16.1842 20.1359 14.7368 24.8727 16.9737 29.2148C21.1184 37.3727 32.8289 35.3333 33.9474 26.2543C34.8026 19.2148 26.4474 13.6885 20.5263 17.3727Z" fill="#EB3540"/>
</svg>
