<svg width="166" height="131" viewBox="0 0 166 131" fill="none" xmlns="http://www.w3.org/2000/svg">
<path d="M18.8893 87.3126V90.6006H14.4253V104.161H10.3213V90.6006H5.85725V87.3126H18.8893ZM27.0449 104.353C25.7329 104.353 24.5489 104.073 23.4929 103.513C22.4529 102.953 21.6289 102.153 21.0209 101.113C20.4289 100.073 20.1329 98.8566 20.1329 97.4646C20.1329 96.0886 20.4369 94.8806 21.0449 93.8406C21.6529 92.7846 22.4849 91.9766 23.5409 91.4166C24.5969 90.8566 25.7809 90.5766 27.0929 90.5766C28.4049 90.5766 29.5889 90.8566 30.6449 91.4166C31.7009 91.9766 32.5329 92.7846 33.1409 93.8406C33.7489 94.8806 34.0529 96.0886 34.0529 97.4646C34.0529 98.8406 33.7409 100.057 33.1169 101.113C32.5089 102.153 31.6689 102.953 30.5969 103.513C29.5409 104.073 28.3569 104.353 27.0449 104.353ZM27.0449 100.801C27.8289 100.801 28.4929 100.513 29.0369 99.9366C29.5969 99.3606 29.8769 98.5366 29.8769 97.4646C29.8769 96.3926 29.6049 95.5686 29.0609 94.9926C28.5329 94.4166 27.8769 94.1286 27.0929 94.1286C26.2929 94.1286 25.6289 94.4166 25.1009 94.9926C24.5729 95.5526 24.3089 96.3766 24.3089 97.4646C24.3089 98.5366 24.5649 99.3606 25.0769 99.9366C25.6049 100.513 26.2609 100.801 27.0449 100.801ZM40.3342 93.0006C40.8142 92.2646 41.4142 91.6886 42.1342 91.2726C42.8542 90.8406 43.6542 90.6246 44.5342 90.6246V94.9686H43.4062C42.3822 94.9686 41.6142 95.1926 41.1022 95.6406C40.5902 96.0726 40.3342 96.8406 40.3342 97.9446V104.161H36.2302V90.7686H40.3342V93.0006ZM53.9598 100.681V104.161H51.8718C50.3838 104.161 49.2238 103.801 48.3918 103.081C47.5598 102.345 47.1438 101.153 47.1438 99.5046V94.1766H45.5118V90.7686H47.1438V87.5046H51.2478V90.7686H53.9358V94.1766H51.2478V99.5526C51.2478 99.9526 51.3438 100.241 51.5358 100.417C51.7278 100.593 52.0478 100.681 52.4958 100.681H53.9598ZM62.3418 104.353C61.0298 104.353 59.8458 104.073 58.7898 103.513C57.7498 102.953 56.9258 102.153 56.3178 101.113C55.7258 100.073 55.4298 98.8566 55.4298 97.4646C55.4298 96.0886 55.7338 94.8806 56.3418 93.8406C56.9498 92.7846 57.7818 91.9766 58.8378 91.4166C59.8938 90.8566 61.0778 90.5766 62.3898 90.5766C63.7018 90.5766 64.8858 90.8566 65.9418 91.4166C66.9978 91.9766 67.8298 92.7846 68.4378 93.8406C69.0458 94.8806 69.3498 96.0886 69.3498 97.4646C69.3498 98.8406 69.0378 100.057 68.4138 101.113C67.8058 102.153 66.9658 102.953 65.8938 103.513C64.8378 104.073 63.6538 104.353 62.3418 104.353ZM62.3418 100.801C63.1258 100.801 63.7898 100.513 64.3338 99.9366C64.8938 99.3606 65.1738 98.5366 65.1738 97.4646C65.1738 96.3926 64.9018 95.5686 64.3578 94.9926C63.8298 94.4166 63.1738 94.1286 62.3898 94.1286C61.5898 94.1286 60.9258 94.4166 60.3978 94.9926C59.8698 95.5526 59.6058 96.3766 59.6058 97.4646C59.6058 98.5366 59.8618 99.3606 60.3738 99.9366C60.9018 100.513 61.5578 100.801 62.3418 100.801ZM73.5911 89.3766C72.8711 89.3766 72.2791 89.1686 71.8151 88.7526C71.3671 88.3206 71.1431 87.7926 71.1431 87.1686C71.1431 86.5286 71.3671 86.0006 71.8151 85.5846C72.2791 85.1526 72.8711 84.9366 73.5911 84.9366C74.2951 84.9366 74.8711 85.1526 75.3191 85.5846C75.7831 86.0006 76.0151 86.5286 76.0151 87.1686C76.0151 87.7926 75.7831 88.3206 75.3191 88.7526C74.8711 89.1686 74.2951 89.3766 73.5911 89.3766ZM75.6311 90.7686V104.161H71.5271V90.7686H75.6311ZM84.0532 104.353C82.8852 104.353 81.8452 104.153 80.9332 103.753C80.0212 103.353 79.3012 102.809 78.7732 102.121C78.2452 101.417 77.9492 100.633 77.8852 99.7686H81.9412C81.9892 100.233 82.2052 100.609 82.5892 100.897C82.9732 101.185 83.4452 101.329 84.0052 101.329C84.5172 101.329 84.9092 101.233 85.1812 101.041C85.4692 100.833 85.6132 100.569 85.6132 100.249C85.6132 99.8646 85.4132 99.5846 85.0132 99.4086C84.6132 99.2166 83.9652 99.0086 83.0692 98.7846C82.1092 98.5606 81.3092 98.3286 80.6692 98.0886C80.0292 97.8326 79.4772 97.4406 79.0132 96.9126C78.5492 96.3686 78.3172 95.6406 78.3172 94.7286C78.3172 93.9606 78.5252 93.2646 78.9412 92.6406C79.3732 92.0006 79.9972 91.4966 80.8132 91.1286C81.6452 90.7606 82.6292 90.5766 83.7652 90.5766C85.4452 90.5766 86.7652 90.9926 87.7252 91.8246C88.7012 92.6566 89.2612 93.7606 89.4052 95.1366H85.6132C85.5492 94.6726 85.3412 94.3046 84.9892 94.0326C84.6532 93.7606 84.2052 93.6246 83.6452 93.6246C83.1652 93.6246 82.7972 93.7206 82.5412 93.9126C82.2852 94.0886 82.1572 94.3366 82.1572 94.6566C82.1572 95.0406 82.3572 95.3286 82.7572 95.5206C83.1732 95.7126 83.8132 95.9046 84.6772 96.0966C85.6692 96.3526 86.4772 96.6086 87.1012 96.8646C87.7252 97.1046 88.2692 97.5046 88.7332 98.0646C89.2132 98.6086 89.4612 99.3446 89.4772 100.273C89.4772 101.057 89.2532 101.761 88.8052 102.385C88.3732 102.993 87.7412 103.473 86.9092 103.825C86.0932 104.177 85.1412 104.353 84.0532 104.353ZM104.612 97.2486C104.612 97.6326 104.588 98.0326 104.54 98.4486H95.252C95.316 99.2806 95.58 99.9206 96.044 100.369C96.524 100.801 97.108 101.017 97.796 101.017C98.82 101.017 99.532 100.585 99.932 99.7206H104.3C104.076 100.601 103.668 101.393 103.076 102.097C102.5 102.801 101.772 103.353 100.892 103.753C100.012 104.153 99.028 104.353 97.94 104.353C96.628 104.353 95.46 104.073 94.436 103.513C93.412 102.953 92.612 102.153 92.036 101.113C91.46 100.073 91.172 98.8566 91.172 97.4646C91.172 96.0726 91.452 94.8566 92.012 93.8166C92.588 92.7766 93.388 91.9766 94.412 91.4166C95.436 90.8566 96.612 90.5766 97.94 90.5766C99.236 90.5766 100.388 90.8486 101.396 91.3926C102.404 91.9366 103.188 92.7126 103.748 93.7206C104.324 94.7286 104.612 95.9046 104.612 97.2486ZM100.412 96.1686C100.412 95.4646 100.172 94.9046 99.692 94.4886C99.212 94.0726 98.612 93.8646 97.892 93.8646C97.204 93.8646 96.62 94.0646 96.14 94.4646C95.676 94.8646 95.388 95.4326 95.276 96.1686H100.412ZM117.959 104.329C116.727 104.329 115.623 104.129 114.647 103.729C113.671 103.329 112.887 102.737 112.295 101.953C111.719 101.169 111.415 100.225 111.383 99.1206H115.751C115.815 99.7446 116.031 100.225 116.399 100.561C116.767 100.881 117.247 101.041 117.839 101.041C118.447 101.041 118.927 100.905 119.279 100.633C119.631 100.345 119.807 99.9526 119.807 99.4566C119.807 99.0406 119.663 98.6966 119.375 98.4246C119.103 98.1526 118.759 97.9286 118.343 97.7526C117.943 97.5766 117.367 97.3766 116.615 97.1526C115.527 96.8166 114.639 96.4806 113.951 96.1446C113.263 95.8086 112.671 95.3126 112.175 94.6566C111.679 94.0006 111.431 93.1446 111.431 92.0886C111.431 90.5206 111.999 89.2966 113.135 88.4166C114.271 87.5206 115.751 87.0726 117.575 87.0726C119.431 87.0726 120.927 87.5206 122.063 88.4166C123.199 89.2966 123.807 90.5286 123.887 92.1126H119.447C119.415 91.5686 119.215 91.1446 118.847 90.8406C118.479 90.5206 118.007 90.3606 117.431 90.3606C116.935 90.3606 116.535 90.4966 116.231 90.7686C115.927 91.0246 115.775 91.4006 115.775 91.8966C115.775 92.4406 116.031 92.8646 116.543 93.1686C117.055 93.4726 117.855 93.8006 118.943 94.1526C120.031 94.5206 120.911 94.8726 121.583 95.2086C122.271 95.5446 122.863 96.0326 123.359 96.6726C123.855 97.3126 124.103 98.1366 124.103 99.1446C124.103 100.105 123.855 100.977 123.359 101.761C122.879 102.545 122.175 103.169 121.247 103.633C120.319 104.097 119.223 104.329 117.959 104.329ZM142.445 87.3126L136.469 104.161H131.333L125.357 87.3126H129.725L133.901 100.033L138.101 87.3126H142.445ZM159.232 104.161H155.128L148.264 93.7686V104.161H144.16V87.3126H148.264L155.128 97.7526V87.3126H159.232V104.161Z" fill="black"/>
<path d="M127.605 11.5767C126.845 13.6116 124.935 13.6116 124.175 11.5767C123.414 9.54178 124.37 6.98434 125.89 6.98432C127.41 6.98432 128.365 9.54175 127.605 11.5767ZM131.577 5.82215C130.189 5.82216 129.317 8.27143 130.011 10.2203C130.705 12.1691 132.45 12.1691 133.144 10.2202C133.838 8.2714 132.965 5.82214 131.577 5.82215ZM132.758 14.6866C134.171 13.2437 135.031 10.9374 135.024 8.10515C135.006 0.920874 129.783 -2.16608 126.437 1.64169C123.939 0.0152767 121.058 1.26973 119.708 4.64787C117.56 6.52218 117.189 7.26423 116.178 13.7956C114.768 16.6153 114.081 19.8957 109.174 19.7237C111.191 17.1213 107.744 13.7176 104.216 15.1309C103.332 12.8085 96.6066 8.71241 92.7621 7.23681C85.5999 4.4879 77.0419 4.90687 70.849 7.05597C62.2985 10.0232 56.8753 17.6161 54.9001 25.3485L43.8437 21.4684C39.1364 19.5007 37.5407 21.2258 40.4848 24.1865C48.519 30.7593 51.2912 31.1917 53.0308 33.2427C47.1457 39.5591 47.3188 41.514 48.9768 47.3924C50.0958 51.3599 60.5391 53.5445 62.5124 52.4431C63.9748 51.6269 65.482 49.8724 65.489 49.4745C65.5287 47.1777 60.5742 42.8145 63.3947 38.9192C65.381 40.5001 71.434 42.5348 73.8416 42.8766C72.6398 44.8671 72.4743 47.3065 72.8497 49.2351C73.2383 52.9665 78.7 54.3363 83.3518 55.1017C87.7618 54.7488 91.9643 56.9973 95.085 52.1422C95.614 49.0599 95.074 45.0893 93.3365 42.6508C94.5929 43.0455 95.7742 42.8513 96.963 42.394C97.0957 47.0109 99.4424 51.0577 103.222 51.0257C108.519 51.4666 111.372 50.7398 113.863 46.6374C115.296 42.4187 111.742 37.6414 106.584 33.1387C115.593 33.7073 114.351 26.1323 120.222 25.9271C125.49 25.8485 127.449 25.4549 128.329 23.8929C125.111 23.5139 123.076 22.1391 121.498 19.3356C121.124 18.6085 122.146 18.0433 122.561 18.7372C123.867 21.0547 125.577 22.6284 129.681 22.7756C133.238 22.8495 133.899 22.6168 135.711 19.6706C136.656 18.1242 135.184 16.8524 132.758 14.6866ZM103.117 25.9462C101.793 32.473 98.0597 41.2962 94.5286 40.425C87.3535 38.4555 80.3675 38.539 75.7252 40.6408C72.3415 40.589 69.2213 38.44 65.9309 37.6675C63.9186 36.7615 60.2181 31.4206 54.7717 31.5183C51.6583 28.4666 51.3978 27.8675 54.8444 27.8745C61.2022 29.4571 63.0072 30.4818 68.2986 34.3575C75.8599 38.61 81.8567 34.1352 86.5876 33.7882C90.7413 33.4097 93.4299 36.7587 96.1618 35.5228C98.3697 34.5464 99.7674 31.1256 101.246 25.371C103.393 16.3129 106.02 16.5758 107.346 17.9676C107.002 19.1643 104.471 19.5562 103.117 25.9462ZM127.66 12.4216C126.15 16.8921 122.355 16.8921 120.845 12.4217C119.336 7.95114 121.233 2.33262 124.253 2.33255C127.272 2.33255 129.17 7.95106 127.66 12.4216ZM128.306 14.373C130.307 10.6454 129.963 5.53864 127.5 2.59296C128.12 1.84547 128.876 1.38403 129.727 1.38403C132.732 1.38403 134.62 7.00247 133.118 11.4731C132.092 14.5268 130.005 15.4912 128.306 14.373Z" fill="black"/>
</svg>
